<mxfile host="app.diagrams.net" modified="2022-05-31T17:03:24.659Z" agent="5.0 (Windows)" etag="J_j0r-Ro7rchDPOvHn79" version="18.1.3" type="github">
  <diagram id="Pgbwz4pBEgQIGdPzvF3l" name="Page-1">
    <mxGraphModel dx="764" dy="323" grid="0" gridSize="10" guides="1" tooltips="1" connect="1" arrows="1" fold="1" page="1" pageScale="1" pageWidth="850" pageHeight="1100" math="0" shadow="0">
      <root>
        <mxCell id="0" />
        <mxCell id="1" parent="0" />
        <mxCell id="9rvDqOFrIInNJt9p8Uub-1" value="Receptionist" style="shape=module;align=left;spacingLeft=20;align=center;verticalAlign=top;fillColor=#dae8fc;strokeColor=#6c8ebf;" vertex="1" parent="1">
          <mxGeometry x="334" y="63" width="100" height="50" as="geometry" />
        </mxCell>
        <mxCell id="9rvDqOFrIInNJt9p8Uub-2" value="" style="endArrow=none;html=1;rounded=0;exitX=1;exitY=0.5;exitDx=0;exitDy=0;fillColor=#dae8fc;strokeColor=#6c8ebf;" edge="1" parent="1">
          <mxGeometry width="50" height="50" relative="1" as="geometry">
            <mxPoint x="434" y="86" as="sourcePoint" />
            <mxPoint x="503" y="86" as="targetPoint" />
          </mxGeometry>
        </mxCell>
        <mxCell id="9rvDqOFrIInNJt9p8Uub-3" value="" style="group;" vertex="1" connectable="0" parent="1">
          <mxGeometry x="287" y="93" width="10" height="10" as="geometry" />
        </mxCell>
        <mxCell id="9rvDqOFrIInNJt9p8Uub-4" value="" style="ellipse;whiteSpace=wrap;html=1;align=center;aspect=fixed;resizable=0;points=[];outlineConnect=0;sketch=0;fillColor=#dae8fc;strokeColor=#6c8ebf;" vertex="1" parent="9rvDqOFrIInNJt9p8Uub-3">
          <mxGeometry width="10" height="10" as="geometry" />
        </mxCell>
        <mxCell id="9rvDqOFrIInNJt9p8Uub-5" value="" style="rounded=0;orthogonalLoop=1;jettySize=auto;html=1;endArrow=none;endFill=0;sketch=0;sourcePerimeterSpacing=0;targetPerimeterSpacing=0;exitX=0;exitY=0;exitDx=0;exitDy=35;exitPerimeter=0;fillColor=#dae8fc;strokeColor=#6c8ebf;" edge="1" parent="1" source="9rvDqOFrIInNJt9p8Uub-1" target="9rvDqOFrIInNJt9p8Uub-4">
          <mxGeometry relative="1" as="geometry">
            <mxPoint x="-76" y="-146" as="sourcePoint" />
          </mxGeometry>
        </mxCell>
        <mxCell id="hMI-7zSJe5-7NLcvPueV-1" value="Data Clerk" style="shape=module;align=left;spacingLeft=20;align=center;verticalAlign=top;fillColor=#dae8fc;strokeColor=#6c8ebf;" parent="1" vertex="1">
          <mxGeometry x="335" y="133" width="100" height="50" as="geometry" />
        </mxCell>
        <mxCell id="hMI-7zSJe5-7NLcvPueV-2" value="Maternal&#xa;Health Information&#xa;System" style="shape=module;align=left;spacingLeft=20;align=center;verticalAlign=top;fillColor=#dae8fc;strokeColor=#6c8ebf;" parent="1" vertex="1">
          <mxGeometry x="29" y="230" width="140" height="50" as="geometry" />
        </mxCell>
        <mxCell id="hMI-7zSJe5-7NLcvPueV-3" value="Client" style="shape=module;align=left;spacingLeft=20;align=center;verticalAlign=top;fillColor=#dae8fc;strokeColor=#6c8ebf;" parent="1" vertex="1">
          <mxGeometry x="335" y="200" width="100" height="50" as="geometry" />
        </mxCell>
        <mxCell id="hMI-7zSJe5-7NLcvPueV-4" value="Doctor" style="shape=module;align=left;spacingLeft=20;align=center;verticalAlign=top;fillColor=#dae8fc;strokeColor=#6c8ebf;" parent="1" vertex="1">
          <mxGeometry x="335" y="268" width="100" height="50" as="geometry" />
        </mxCell>
        <mxCell id="hMI-7zSJe5-7NLcvPueV-5" value="Midwife &#xa;Nurse" style="shape=module;align=left;spacingLeft=20;align=center;verticalAlign=top;fillColor=#dae8fc;strokeColor=#6c8ebf;" parent="1" vertex="1">
          <mxGeometry x="335" y="335" width="100" height="50" as="geometry" />
        </mxCell>
        <mxCell id="hMI-7zSJe5-7NLcvPueV-6" value="Appointment" style="shape=module;align=left;spacingLeft=20;align=center;verticalAlign=top;fillColor=#dae8fc;strokeColor=#6c8ebf;" parent="1" vertex="1">
          <mxGeometry x="335" y="403" width="100" height="50" as="geometry" />
        </mxCell>
        <mxCell id="hMI-7zSJe5-7NLcvPueV-7" value="Security" style="shape=module;align=left;spacingLeft=20;align=center;verticalAlign=top;fillColor=#dae8fc;strokeColor=#6c8ebf;" parent="1" vertex="1">
          <mxGeometry x="634" y="170" width="100" height="50" as="geometry" />
        </mxCell>
        <mxCell id="hMI-7zSJe5-7NLcvPueV-8" value="Persistance" style="shape=module;align=left;spacingLeft=20;align=center;verticalAlign=top;fillColor=#dae8fc;strokeColor=#6c8ebf;" parent="1" vertex="1">
          <mxGeometry x="634" y="280" width="100" height="50" as="geometry" />
        </mxCell>
        <mxCell id="hMI-7zSJe5-7NLcvPueV-9" value="Database" style="shape=module;align=left;spacingLeft=20;align=center;verticalAlign=top;fillColor=#dae8fc;strokeColor=#6c8ebf;" parent="1" vertex="1">
          <mxGeometry x="574" y="400" width="100" height="50" as="geometry" />
        </mxCell>
        <mxCell id="hMI-7zSJe5-7NLcvPueV-19" value="" style="rounded=0;orthogonalLoop=1;jettySize=auto;html=1;endArrow=none;endFill=0;sketch=0;sourcePerimeterSpacing=0;targetPerimeterSpacing=0;exitX=0;exitY=0;exitDx=0;exitDy=35;exitPerimeter=0;fillColor=#dae8fc;strokeColor=#6c8ebf;" parent="1" source="hMI-7zSJe5-7NLcvPueV-3" target="hMI-7zSJe5-7NLcvPueV-18" edge="1">
          <mxGeometry relative="1" as="geometry">
            <mxPoint x="-36" y="45" as="sourcePoint" />
          </mxGeometry>
        </mxCell>
        <mxCell id="hMI-7zSJe5-7NLcvPueV-38" value="" style="group;container=0;" parent="1" vertex="1" connectable="0">
          <mxGeometry x="288" y="365" width="10" height="10" as="geometry" />
        </mxCell>
        <mxCell id="hMI-7zSJe5-7NLcvPueV-39" value="" style="group;" parent="1" vertex="1" connectable="0">
          <mxGeometry x="288" y="433" width="10" height="10" as="geometry" />
        </mxCell>
        <mxCell id="hMI-7zSJe5-7NLcvPueV-40" value="" style="group;" parent="hMI-7zSJe5-7NLcvPueV-39" vertex="1" connectable="0">
          <mxGeometry width="10" height="10" as="geometry" />
        </mxCell>
        <mxCell id="hMI-7zSJe5-7NLcvPueV-41" value="" style="group;" parent="hMI-7zSJe5-7NLcvPueV-40" vertex="1" connectable="0">
          <mxGeometry width="10" height="10" as="geometry" />
        </mxCell>
        <mxCell id="hMI-7zSJe5-7NLcvPueV-42" value="" style="group;" parent="hMI-7zSJe5-7NLcvPueV-41" vertex="1" connectable="0">
          <mxGeometry width="10" height="10" as="geometry" />
        </mxCell>
        <mxCell id="hMI-7zSJe5-7NLcvPueV-43" value="" style="ellipse;whiteSpace=wrap;html=1;align=center;aspect=fixed;resizable=0;points=[];outlineConnect=0;sketch=0;fillColor=#dae8fc;strokeColor=#6c8ebf;" parent="hMI-7zSJe5-7NLcvPueV-42" vertex="1">
          <mxGeometry width="10" height="10" as="geometry" />
        </mxCell>
        <mxCell id="hMI-7zSJe5-7NLcvPueV-44" value="" style="rounded=0;orthogonalLoop=1;jettySize=auto;html=1;endArrow=none;endFill=0;sketch=0;sourcePerimeterSpacing=0;targetPerimeterSpacing=0;exitX=0;exitY=0;exitDx=0;exitDy=35;exitPerimeter=0;fillColor=#dae8fc;strokeColor=#6c8ebf;" parent="1" source="hMI-7zSJe5-7NLcvPueV-6" target="hMI-7zSJe5-7NLcvPueV-43" edge="1">
          <mxGeometry relative="1" as="geometry">
            <mxPoint x="314" y="443" as="sourcePoint" />
          </mxGeometry>
        </mxCell>
        <mxCell id="hMI-7zSJe5-7NLcvPueV-45" value="" style="rounded=0;orthogonalLoop=1;jettySize=auto;html=1;endArrow=none;endFill=0;sketch=0;sourcePerimeterSpacing=0;targetPerimeterSpacing=0;exitX=0;exitY=0;exitDx=0;exitDy=15;exitPerimeter=0;fillColor=#dae8fc;strokeColor=#6c8ebf;" parent="1" source="hMI-7zSJe5-7NLcvPueV-7" target="hMI-7zSJe5-7NLcvPueV-47" edge="1">
          <mxGeometry relative="1" as="geometry">
            <mxPoint x="-866" y="-355" as="sourcePoint" />
          </mxGeometry>
        </mxCell>
        <mxCell id="hMI-7zSJe5-7NLcvPueV-58" value="" style="rounded=0;orthogonalLoop=1;jettySize=auto;html=1;endArrow=none;endFill=0;sketch=0;sourcePerimeterSpacing=0;targetPerimeterSpacing=0;exitX=0;exitY=0;exitDx=0;exitDy=15;exitPerimeter=0;fillColor=#dae8fc;strokeColor=#6c8ebf;" parent="1" target="hMI-7zSJe5-7NLcvPueV-57" edge="1">
          <mxGeometry relative="1" as="geometry">
            <mxPoint x="634" y="205" as="sourcePoint" />
          </mxGeometry>
        </mxCell>
        <mxCell id="hMI-7zSJe5-7NLcvPueV-46" value="" style="rounded=0;orthogonalLoop=1;jettySize=auto;html=1;endArrow=halfCircle;endFill=0;entryX=0.5;entryY=0.5;endSize=6;strokeWidth=1;sketch=0;fillColor=#dae8fc;strokeColor=#6c8ebf;" parent="1" target="hMI-7zSJe5-7NLcvPueV-47" edge="1">
          <mxGeometry relative="1" as="geometry">
            <mxPoint x="504" y="185" as="sourcePoint" />
          </mxGeometry>
        </mxCell>
        <mxCell id="hMI-7zSJe5-7NLcvPueV-47" value="" style="ellipse;whiteSpace=wrap;html=1;align=center;aspect=fixed;resizable=0;points=[];outlineConnect=0;sketch=0;rotation=-180;container=0;fillColor=#dae8fc;strokeColor=#6c8ebf;" parent="1" vertex="1">
          <mxGeometry x="549" y="180" width="10" height="10" as="geometry" />
        </mxCell>
        <mxCell id="hMI-7zSJe5-7NLcvPueV-56" value="" style="rounded=0;orthogonalLoop=1;jettySize=auto;html=1;endArrow=halfCircle;endFill=0;entryX=0.5;entryY=0.5;endSize=6;strokeWidth=1;sketch=0;fillColor=#dae8fc;strokeColor=#6c8ebf;" parent="1" target="hMI-7zSJe5-7NLcvPueV-57" edge="1">
          <mxGeometry relative="1" as="geometry">
            <mxPoint x="504" y="205" as="sourcePoint" />
          </mxGeometry>
        </mxCell>
        <mxCell id="hMI-7zSJe5-7NLcvPueV-57" value="" style="ellipse;whiteSpace=wrap;html=1;align=center;aspect=fixed;resizable=0;points=[];outlineConnect=0;sketch=0;rotation=-180;container=0;fillColor=#dae8fc;strokeColor=#6c8ebf;" parent="1" vertex="1">
          <mxGeometry x="549" y="200" width="10" height="10" as="geometry" />
        </mxCell>
        <mxCell id="hMI-7zSJe5-7NLcvPueV-77" value="" style="group;" parent="1" vertex="1" connectable="0">
          <mxGeometry x="504" y="290" width="55" height="10" as="geometry" />
        </mxCell>
        <mxCell id="hMI-7zSJe5-7NLcvPueV-78" value="" style="group;" parent="1" vertex="1" connectable="0">
          <mxGeometry x="504" y="310" width="55" height="10" as="geometry" />
        </mxCell>
        <mxCell id="hMI-7zSJe5-7NLcvPueV-79" value="" style="rounded=0;orthogonalLoop=1;jettySize=auto;html=1;endArrow=none;endFill=0;sketch=0;sourcePerimeterSpacing=0;targetPerimeterSpacing=0;exitX=0;exitY=0;exitDx=0;exitDy=15;exitPerimeter=0;fillColor=#dae8fc;strokeColor=#6c8ebf;" parent="1" target="hMI-7zSJe5-7NLcvPueV-82" edge="1">
          <mxGeometry relative="1" as="geometry">
            <mxPoint x="634" y="295" as="sourcePoint" />
          </mxGeometry>
        </mxCell>
        <mxCell id="hMI-7zSJe5-7NLcvPueV-80" value="" style="rounded=0;orthogonalLoop=1;jettySize=auto;html=1;endArrow=none;endFill=0;sketch=0;sourcePerimeterSpacing=0;targetPerimeterSpacing=0;exitX=0;exitY=0;exitDx=0;exitDy=15;exitPerimeter=0;fillColor=#dae8fc;strokeColor=#6c8ebf;" parent="1" target="hMI-7zSJe5-7NLcvPueV-84" edge="1">
          <mxGeometry relative="1" as="geometry">
            <mxPoint x="634" y="315" as="sourcePoint" />
          </mxGeometry>
        </mxCell>
        <mxCell id="hMI-7zSJe5-7NLcvPueV-81" value="" style="rounded=0;orthogonalLoop=1;jettySize=auto;html=1;endArrow=halfCircle;endFill=0;entryX=0.5;entryY=0.5;endSize=6;strokeWidth=1;sketch=0;fillColor=#dae8fc;strokeColor=#6c8ebf;" parent="1" target="hMI-7zSJe5-7NLcvPueV-82" edge="1">
          <mxGeometry relative="1" as="geometry">
            <mxPoint x="504" y="295" as="sourcePoint" />
          </mxGeometry>
        </mxCell>
        <mxCell id="hMI-7zSJe5-7NLcvPueV-82" value="" style="ellipse;whiteSpace=wrap;html=1;align=center;aspect=fixed;resizable=0;points=[];outlineConnect=0;sketch=0;rotation=-180;container=0;fillColor=#dae8fc;strokeColor=#6c8ebf;" parent="1" vertex="1">
          <mxGeometry x="549" y="290" width="10" height="10" as="geometry" />
        </mxCell>
        <mxCell id="hMI-7zSJe5-7NLcvPueV-83" value="" style="rounded=0;orthogonalLoop=1;jettySize=auto;html=1;endArrow=halfCircle;endFill=0;entryX=0.5;entryY=0.5;endSize=6;strokeWidth=1;sketch=0;fillColor=#dae8fc;strokeColor=#6c8ebf;" parent="1" target="hMI-7zSJe5-7NLcvPueV-84" edge="1">
          <mxGeometry relative="1" as="geometry">
            <mxPoint x="504" y="315" as="sourcePoint" />
          </mxGeometry>
        </mxCell>
        <mxCell id="hMI-7zSJe5-7NLcvPueV-84" value="" style="ellipse;whiteSpace=wrap;html=1;align=center;aspect=fixed;resizable=0;points=[];outlineConnect=0;sketch=0;rotation=-180;container=0;fillColor=#dae8fc;strokeColor=#6c8ebf;" parent="1" vertex="1">
          <mxGeometry x="549" y="310" width="10" height="10" as="geometry" />
        </mxCell>
        <mxCell id="hMI-7zSJe5-7NLcvPueV-87" value="" style="rounded=0;orthogonalLoop=1;jettySize=auto;html=1;endArrow=none;endFill=0;sketch=0;sourcePerimeterSpacing=0;targetPerimeterSpacing=0;exitX=1;exitY=0.5;exitDx=0;exitDy=0;fillColor=#dae8fc;strokeColor=#6c8ebf;" parent="1" source="hMI-7zSJe5-7NLcvPueV-8" target="hMI-7zSJe5-7NLcvPueV-90" edge="1">
          <mxGeometry relative="1" as="geometry">
            <mxPoint x="654" y="235" as="sourcePoint" />
            <Array as="points">
              <mxPoint x="800" y="305" />
              <mxPoint x="800" y="425" />
            </Array>
          </mxGeometry>
        </mxCell>
        <mxCell id="hMI-7zSJe5-7NLcvPueV-89" value="" style="rounded=0;orthogonalLoop=1;jettySize=auto;html=1;endArrow=halfCircle;endFill=0;entryX=0.5;entryY=0.5;endSize=6;strokeWidth=1;sketch=0;exitX=1;exitY=0.5;exitDx=0;exitDy=0;fillColor=#dae8fc;strokeColor=#6c8ebf;" parent="1" source="hMI-7zSJe5-7NLcvPueV-9" target="hMI-7zSJe5-7NLcvPueV-90" edge="1">
          <mxGeometry relative="1" as="geometry">
            <mxPoint x="524" y="235" as="sourcePoint" />
          </mxGeometry>
        </mxCell>
        <mxCell id="hMI-7zSJe5-7NLcvPueV-90" value="" style="ellipse;whiteSpace=wrap;html=1;align=center;aspect=fixed;resizable=0;points=[];outlineConnect=0;sketch=0;rotation=-180;container=0;fillColor=#dae8fc;strokeColor=#6c8ebf;" parent="1" vertex="1">
          <mxGeometry x="754" y="420" width="10" height="10" as="geometry" />
        </mxCell>
        <mxCell id="hMI-7zSJe5-7NLcvPueV-93" value="" style="endArrow=none;html=1;rounded=0;fillColor=#dae8fc;strokeColor=#6c8ebf;" parent="1" edge="1">
          <mxGeometry width="50" height="50" relative="1" as="geometry">
            <mxPoint x="504" y="563" as="sourcePoint" />
            <mxPoint x="504" y="86" as="targetPoint" />
          </mxGeometry>
        </mxCell>
        <mxCell id="hMI-7zSJe5-7NLcvPueV-94" value="" style="endArrow=none;html=1;rounded=0;exitX=1;exitY=0.5;exitDx=0;exitDy=0;fillColor=#dae8fc;strokeColor=#6c8ebf;" parent="1" source="hMI-7zSJe5-7NLcvPueV-6" edge="1">
          <mxGeometry width="50" height="50" relative="1" as="geometry">
            <mxPoint x="434" y="393" as="sourcePoint" />
            <mxPoint x="504" y="428" as="targetPoint" />
          </mxGeometry>
        </mxCell>
        <mxCell id="hMI-7zSJe5-7NLcvPueV-95" value="" style="endArrow=none;html=1;rounded=0;exitX=1;exitY=0.5;exitDx=0;exitDy=0;fillColor=#dae8fc;strokeColor=#6c8ebf;" parent="1" edge="1">
          <mxGeometry width="50" height="50" relative="1" as="geometry">
            <mxPoint x="435" y="360" as="sourcePoint" />
            <mxPoint x="504" y="360" as="targetPoint" />
          </mxGeometry>
        </mxCell>
        <mxCell id="hMI-7zSJe5-7NLcvPueV-96" value="" style="endArrow=none;html=1;rounded=0;exitX=1;exitY=0.5;exitDx=0;exitDy=0;fillColor=#dae8fc;strokeColor=#6c8ebf;" parent="1" edge="1">
          <mxGeometry width="50" height="50" relative="1" as="geometry">
            <mxPoint x="435" y="293" as="sourcePoint" />
            <mxPoint x="504" y="293" as="targetPoint" />
          </mxGeometry>
        </mxCell>
        <mxCell id="hMI-7zSJe5-7NLcvPueV-97" value="" style="endArrow=none;html=1;rounded=0;exitX=1;exitY=0.5;exitDx=0;exitDy=0;fillColor=#dae8fc;strokeColor=#6c8ebf;" parent="1" edge="1">
          <mxGeometry width="50" height="50" relative="1" as="geometry">
            <mxPoint x="435" y="225" as="sourcePoint" />
            <mxPoint x="504" y="225" as="targetPoint" />
          </mxGeometry>
        </mxCell>
        <mxCell id="hMI-7zSJe5-7NLcvPueV-98" value="" style="endArrow=none;html=1;rounded=0;exitX=1;exitY=0.5;exitDx=0;exitDy=0;fillColor=#dae8fc;strokeColor=#6c8ebf;" parent="1" edge="1">
          <mxGeometry width="50" height="50" relative="1" as="geometry">
            <mxPoint x="435" y="156" as="sourcePoint" />
            <mxPoint x="504" y="156" as="targetPoint" />
          </mxGeometry>
        </mxCell>
        <mxCell id="hMI-7zSJe5-7NLcvPueV-99" value="Encryption" style="text;html=1;align=center;verticalAlign=middle;whiteSpace=wrap;rounded=0;" parent="1" vertex="1">
          <mxGeometry x="536" y="151" width="60" height="30" as="geometry" />
        </mxCell>
        <mxCell id="hMI-7zSJe5-7NLcvPueV-100" value="Access Control" style="text;html=1;align=center;verticalAlign=middle;whiteSpace=wrap;rounded=0;" parent="1" vertex="1">
          <mxGeometry x="524" y="207" width="90" height="30" as="geometry" />
        </mxCell>
        <mxCell id="hMI-7zSJe5-7NLcvPueV-101" value="Encryption" style="text;html=1;align=center;verticalAlign=middle;whiteSpace=wrap;rounded=0;" parent="1" vertex="1">
          <mxGeometry x="536" y="261" width="60" height="30" as="geometry" />
        </mxCell>
        <mxCell id="hMI-7zSJe5-7NLcvPueV-102" value="Data Access" style="text;html=1;align=center;verticalAlign=middle;whiteSpace=wrap;rounded=0;" parent="1" vertex="1">
          <mxGeometry x="248" y="168" width="90" height="28" as="geometry" />
        </mxCell>
        <mxCell id="hMI-7zSJe5-7NLcvPueV-103" value="Database Connector" style="text;html=1;align=center;verticalAlign=middle;whiteSpace=wrap;rounded=0;" parent="1" vertex="1">
          <mxGeometry x="680" y="427" width="120" height="30" as="geometry" />
        </mxCell>
        <mxCell id="hMI-7zSJe5-7NLcvPueV-104" value="Access Control" style="text;html=1;align=center;verticalAlign=middle;whiteSpace=wrap;rounded=0;" parent="1" vertex="1">
          <mxGeometry x="523" y="318" width="90" height="30" as="geometry" />
        </mxCell>
        <mxCell id="hMI-7zSJe5-7NLcvPueV-105" value="Data Access" style="text;html=1;align=center;verticalAlign=middle;whiteSpace=wrap;rounded=0;" parent="1" vertex="1">
          <mxGeometry x="248" y="236" width="90" height="28" as="geometry" />
        </mxCell>
        <mxCell id="hMI-7zSJe5-7NLcvPueV-106" value="Data Access" style="text;html=1;align=center;verticalAlign=middle;whiteSpace=wrap;rounded=0;" parent="1" vertex="1">
          <mxGeometry x="248" y="302" width="90" height="28" as="geometry" />
        </mxCell>
        <mxCell id="hMI-7zSJe5-7NLcvPueV-107" value="Data Access" style="text;html=1;align=center;verticalAlign=middle;whiteSpace=wrap;rounded=0;" parent="1" vertex="1">
          <mxGeometry x="248" y="369" width="90" height="28" as="geometry" />
        </mxCell>
        <mxCell id="hMI-7zSJe5-7NLcvPueV-108" value="Data Access" style="text;html=1;align=center;verticalAlign=middle;whiteSpace=wrap;rounded=0;" parent="1" vertex="1">
          <mxGeometry x="248" y="437" width="90" height="28" as="geometry" />
        </mxCell>
        <mxCell id="hMI-7zSJe5-7NLcvPueV-118" value="" style="endArrow=none;dashed=1;html=1;rounded=0;entryX=1;entryY=0.5;entryDx=0;entryDy=0;exitX=0;exitY=0;exitDx=0;exitDy=15;exitPerimeter=0;endFill=0;startArrow=block;startFill=0;fillColor=#dae8fc;strokeColor=#6c8ebf;" parent="1" source="9rvDqOFrIInNJt9p8Uub-1" target="hMI-7zSJe5-7NLcvPueV-2" edge="1">
          <mxGeometry width="50" height="50" relative="1" as="geometry">
            <mxPoint x="220" y="255" as="sourcePoint" />
            <mxPoint x="440" y="300" as="targetPoint" />
            <Array as="points">
              <mxPoint x="200" y="78" />
              <mxPoint x="200" y="255" />
            </Array>
          </mxGeometry>
        </mxCell>
        <mxCell id="hMI-7zSJe5-7NLcvPueV-119" value="" style="endArrow=block;dashed=1;html=1;rounded=0;entryX=0;entryY=0;entryDx=0;entryDy=15;entryPerimeter=0;endFill=0;fillColor=#dae8fc;strokeColor=#6c8ebf;" parent="1" target="hMI-7zSJe5-7NLcvPueV-3" edge="1">
          <mxGeometry width="50" height="50" relative="1" as="geometry">
            <mxPoint x="200" y="215" as="sourcePoint" />
            <mxPoint x="440" y="240" as="targetPoint" />
          </mxGeometry>
        </mxCell>
        <mxCell id="hMI-7zSJe5-7NLcvPueV-120" value="" style="endArrow=block;dashed=1;html=1;rounded=0;entryX=0;entryY=0;entryDx=0;entryDy=15;entryPerimeter=0;endFill=0;fillColor=#dae8fc;strokeColor=#6c8ebf;" parent="1" edge="1">
          <mxGeometry width="50" height="50" relative="1" as="geometry">
            <mxPoint x="200" y="283" as="sourcePoint" />
            <mxPoint x="335" y="283" as="targetPoint" />
          </mxGeometry>
        </mxCell>
        <mxCell id="hMI-7zSJe5-7NLcvPueV-121" value="" style="endArrow=block;dashed=1;html=1;rounded=0;entryX=0;entryY=0;entryDx=0;entryDy=15;entryPerimeter=0;endFill=0;fillColor=#dae8fc;strokeColor=#6c8ebf;" parent="1" edge="1">
          <mxGeometry width="50" height="50" relative="1" as="geometry">
            <mxPoint x="200" y="350" as="sourcePoint" />
            <mxPoint x="335" y="350" as="targetPoint" />
          </mxGeometry>
        </mxCell>
        <mxCell id="hMI-7zSJe5-7NLcvPueV-122" value="" style="endArrow=block;dashed=1;html=1;rounded=0;exitX=0.997;exitY=0.677;exitDx=0;exitDy=0;exitPerimeter=0;endFill=0;fillColor=#dae8fc;strokeColor=#6c8ebf;entryX=0;entryY=0;entryDx=0;entryDy=15;entryPerimeter=0;" parent="1" source="hMI-7zSJe5-7NLcvPueV-2" target="9rvDqOFrIInNJt9p8Uub-17" edge="1">
          <mxGeometry width="50" height="50" relative="1" as="geometry">
            <mxPoint x="220" y="315" as="sourcePoint" />
            <mxPoint x="204" y="527" as="targetPoint" />
            <Array as="points">
              <mxPoint x="200" y="264" />
              <mxPoint x="200" y="552" />
            </Array>
          </mxGeometry>
        </mxCell>
        <mxCell id="hMI-7zSJe5-7NLcvPueV-13" value="" style="group;" parent="1" vertex="1" connectable="0">
          <mxGeometry x="288" y="163" width="10" height="10" as="geometry" />
        </mxCell>
        <mxCell id="hMI-7zSJe5-7NLcvPueV-12" value="" style="ellipse;whiteSpace=wrap;html=1;align=center;aspect=fixed;resizable=0;points=[];outlineConnect=0;sketch=0;fillColor=#dae8fc;strokeColor=#6c8ebf;" parent="hMI-7zSJe5-7NLcvPueV-13" vertex="1">
          <mxGeometry width="10" height="10" as="geometry" />
        </mxCell>
        <mxCell id="hMI-7zSJe5-7NLcvPueV-10" value="" style="rounded=0;orthogonalLoop=1;jettySize=auto;html=1;endArrow=none;endFill=0;sketch=0;sourcePerimeterSpacing=0;targetPerimeterSpacing=0;exitX=0;exitY=0;exitDx=0;exitDy=35;exitPerimeter=0;fillColor=#dae8fc;strokeColor=#6c8ebf;" parent="1" source="hMI-7zSJe5-7NLcvPueV-1" target="hMI-7zSJe5-7NLcvPueV-12" edge="1">
          <mxGeometry relative="1" as="geometry">
            <mxPoint x="-46" y="46" as="sourcePoint" />
          </mxGeometry>
        </mxCell>
        <mxCell id="hMI-7zSJe5-7NLcvPueV-17" value="" style="group;" parent="1" vertex="1" connectable="0">
          <mxGeometry x="288" y="230" width="10" height="10" as="geometry" />
        </mxCell>
        <mxCell id="hMI-7zSJe5-7NLcvPueV-18" value="" style="ellipse;whiteSpace=wrap;html=1;align=center;aspect=fixed;resizable=0;points=[];outlineConnect=0;sketch=0;fillColor=#dae8fc;strokeColor=#6c8ebf;" parent="hMI-7zSJe5-7NLcvPueV-17" vertex="1">
          <mxGeometry width="10" height="10" as="geometry" />
        </mxCell>
        <mxCell id="hMI-7zSJe5-7NLcvPueV-23" value="" style="rounded=0;orthogonalLoop=1;jettySize=auto;html=1;endArrow=none;endFill=0;sketch=0;sourcePerimeterSpacing=0;targetPerimeterSpacing=0;exitX=0;exitY=0;exitDx=0;exitDy=35;exitPerimeter=0;fillColor=#dae8fc;strokeColor=#6c8ebf;" parent="1" source="hMI-7zSJe5-7NLcvPueV-4" target="hMI-7zSJe5-7NLcvPueV-22" edge="1">
          <mxGeometry relative="1" as="geometry">
            <mxPoint x="-56" y="191" as="sourcePoint" />
          </mxGeometry>
        </mxCell>
        <mxCell id="hMI-7zSJe5-7NLcvPueV-22" value="" style="ellipse;whiteSpace=wrap;html=1;align=center;aspect=fixed;resizable=0;points=[];outlineConnect=0;sketch=0;fillColor=#dae8fc;strokeColor=#6c8ebf;" parent="1" vertex="1">
          <mxGeometry x="288" y="298" width="10" height="10" as="geometry" />
        </mxCell>
        <mxCell id="hMI-7zSJe5-7NLcvPueV-25" value="" style="group;container=0;" parent="1" vertex="1" connectable="0">
          <mxGeometry x="288" y="365" width="10" height="10" as="geometry" />
        </mxCell>
        <mxCell id="hMI-7zSJe5-7NLcvPueV-29" value="" style="rounded=0;orthogonalLoop=1;jettySize=auto;html=1;endArrow=none;endFill=0;sketch=0;sourcePerimeterSpacing=0;targetPerimeterSpacing=0;exitX=0;exitY=0;exitDx=0;exitDy=35;exitPerimeter=0;fillColor=#dae8fc;strokeColor=#6c8ebf;" parent="1" source="hMI-7zSJe5-7NLcvPueV-5" target="hMI-7zSJe5-7NLcvPueV-28" edge="1">
          <mxGeometry relative="1" as="geometry">
            <mxPoint x="324" y="375" as="sourcePoint" />
          </mxGeometry>
        </mxCell>
        <mxCell id="hMI-7zSJe5-7NLcvPueV-27" value="" style="group;container=0;" parent="1" vertex="1" connectable="0">
          <mxGeometry x="288" y="365" width="10" height="10" as="geometry" />
        </mxCell>
        <mxCell id="hMI-7zSJe5-7NLcvPueV-28" value="" style="ellipse;whiteSpace=wrap;html=1;align=center;aspect=fixed;resizable=0;points=[];outlineConnect=0;sketch=0;fillColor=#dae8fc;strokeColor=#6c8ebf;" parent="1" vertex="1">
          <mxGeometry x="288" y="365" width="10" height="10" as="geometry" />
        </mxCell>
        <mxCell id="hMI-7zSJe5-7NLcvPueV-124" value="" style="group;" parent="1" vertex="1" connectable="0">
          <mxGeometry x="94" y="330" width="10" height="10" as="geometry" />
        </mxCell>
        <mxCell id="hMI-7zSJe5-7NLcvPueV-125" value="" style="ellipse;whiteSpace=wrap;html=1;align=center;aspect=fixed;resizable=0;points=[];outlineConnect=0;sketch=0;fillColor=#dae8fc;strokeColor=#6c8ebf;" parent="hMI-7zSJe5-7NLcvPueV-124" vertex="1">
          <mxGeometry width="10" height="10" as="geometry" />
        </mxCell>
        <mxCell id="hMI-7zSJe5-7NLcvPueV-126" value="" style="rounded=0;orthogonalLoop=1;jettySize=auto;html=1;endArrow=none;endFill=0;sketch=0;sourcePerimeterSpacing=0;targetPerimeterSpacing=0;exitX=0.5;exitY=1;exitDx=0;exitDy=0;fillColor=#dae8fc;strokeColor=#6c8ebf;" parent="1" source="hMI-7zSJe5-7NLcvPueV-2" target="hMI-7zSJe5-7NLcvPueV-125" edge="1">
          <mxGeometry relative="1" as="geometry">
            <mxPoint x="105" y="347" as="sourcePoint" />
          </mxGeometry>
        </mxCell>
        <mxCell id="hMI-7zSJe5-7NLcvPueV-127" value="System Admin of Maternal Health Medical Record System" style="text;html=1;strokeColor=none;fillColor=none;align=center;verticalAlign=middle;whiteSpace=wrap;rounded=0;" parent="1" vertex="1">
          <mxGeometry x="42" y="341" width="116" height="63" as="geometry" />
        </mxCell>
        <mxCell id="9rvDqOFrIInNJt9p8Uub-6" value="" style="endArrow=block;dashed=1;html=1;rounded=0;entryX=0;entryY=0;entryDx=0;entryDy=15;entryPerimeter=0;endFill=0;fillColor=#dae8fc;strokeColor=#6c8ebf;" edge="1" parent="1">
          <mxGeometry width="50" height="50" relative="1" as="geometry">
            <mxPoint x="200" y="148" as="sourcePoint" />
            <mxPoint x="335" y="148" as="targetPoint" />
          </mxGeometry>
        </mxCell>
        <mxCell id="9rvDqOFrIInNJt9p8Uub-7" value="Data Access" style="text;html=1;align=center;verticalAlign=middle;whiteSpace=wrap;rounded=0;" vertex="1" parent="1">
          <mxGeometry x="248" y="98" width="90" height="28" as="geometry" />
        </mxCell>
        <mxCell id="9rvDqOFrIInNJt9p8Uub-8" value="Laboratorist " style="shape=module;align=left;spacingLeft=20;align=center;verticalAlign=top;fillColor=#dae8fc;strokeColor=#6c8ebf;" vertex="1" parent="1">
          <mxGeometry x="335" y="471" width="100" height="50" as="geometry" />
        </mxCell>
        <mxCell id="9rvDqOFrIInNJt9p8Uub-9" value="" style="group;" vertex="1" connectable="0" parent="1">
          <mxGeometry x="288" y="501" width="10" height="10" as="geometry" />
        </mxCell>
        <mxCell id="9rvDqOFrIInNJt9p8Uub-10" value="" style="group;" vertex="1" connectable="0" parent="9rvDqOFrIInNJt9p8Uub-9">
          <mxGeometry width="10" height="10" as="geometry" />
        </mxCell>
        <mxCell id="9rvDqOFrIInNJt9p8Uub-11" value="" style="group;" vertex="1" connectable="0" parent="9rvDqOFrIInNJt9p8Uub-10">
          <mxGeometry width="10" height="10" as="geometry" />
        </mxCell>
        <mxCell id="9rvDqOFrIInNJt9p8Uub-12" value="" style="group;" vertex="1" connectable="0" parent="9rvDqOFrIInNJt9p8Uub-11">
          <mxGeometry width="10" height="10" as="geometry" />
        </mxCell>
        <mxCell id="9rvDqOFrIInNJt9p8Uub-13" value="" style="ellipse;whiteSpace=wrap;html=1;align=center;aspect=fixed;resizable=0;points=[];outlineConnect=0;sketch=0;fillColor=#dae8fc;strokeColor=#6c8ebf;" vertex="1" parent="9rvDqOFrIInNJt9p8Uub-12">
          <mxGeometry width="10" height="10" as="geometry" />
        </mxCell>
        <mxCell id="9rvDqOFrIInNJt9p8Uub-14" value="" style="rounded=0;orthogonalLoop=1;jettySize=auto;html=1;endArrow=none;endFill=0;sketch=0;sourcePerimeterSpacing=0;targetPerimeterSpacing=0;exitX=0;exitY=0;exitDx=0;exitDy=35;exitPerimeter=0;fillColor=#dae8fc;strokeColor=#6c8ebf;" edge="1" parent="1" source="9rvDqOFrIInNJt9p8Uub-8" target="9rvDqOFrIInNJt9p8Uub-13">
          <mxGeometry relative="1" as="geometry">
            <mxPoint x="314" y="511" as="sourcePoint" />
          </mxGeometry>
        </mxCell>
        <mxCell id="9rvDqOFrIInNJt9p8Uub-15" value="" style="endArrow=none;html=1;rounded=0;exitX=1;exitY=0.5;exitDx=0;exitDy=0;fillColor=#dae8fc;strokeColor=#6c8ebf;" edge="1" parent="1" source="9rvDqOFrIInNJt9p8Uub-8">
          <mxGeometry width="50" height="50" relative="1" as="geometry">
            <mxPoint x="434" y="461" as="sourcePoint" />
            <mxPoint x="504" y="496" as="targetPoint" />
          </mxGeometry>
        </mxCell>
        <mxCell id="9rvDqOFrIInNJt9p8Uub-16" value="Data Access" style="text;html=1;align=center;verticalAlign=middle;whiteSpace=wrap;rounded=0;" vertex="1" parent="1">
          <mxGeometry x="248" y="505" width="90" height="28" as="geometry" />
        </mxCell>
        <mxCell id="9rvDqOFrIInNJt9p8Uub-17" value="HMIS Officer" style="shape=module;align=left;spacingLeft=20;align=center;verticalAlign=top;fillColor=#dae8fc;strokeColor=#6c8ebf;" vertex="1" parent="1">
          <mxGeometry x="336" y="537" width="100" height="50" as="geometry" />
        </mxCell>
        <mxCell id="9rvDqOFrIInNJt9p8Uub-18" value="" style="group;" vertex="1" connectable="0" parent="1">
          <mxGeometry x="289" y="567" width="10" height="10" as="geometry" />
        </mxCell>
        <mxCell id="9rvDqOFrIInNJt9p8Uub-19" value="" style="group;" vertex="1" connectable="0" parent="9rvDqOFrIInNJt9p8Uub-18">
          <mxGeometry width="10" height="10" as="geometry" />
        </mxCell>
        <mxCell id="9rvDqOFrIInNJt9p8Uub-20" value="" style="group;" vertex="1" connectable="0" parent="9rvDqOFrIInNJt9p8Uub-19">
          <mxGeometry width="10" height="10" as="geometry" />
        </mxCell>
        <mxCell id="9rvDqOFrIInNJt9p8Uub-21" value="" style="group;" vertex="1" connectable="0" parent="9rvDqOFrIInNJt9p8Uub-20">
          <mxGeometry width="10" height="10" as="geometry" />
        </mxCell>
        <mxCell id="9rvDqOFrIInNJt9p8Uub-22" value="" style="ellipse;whiteSpace=wrap;html=1;align=center;aspect=fixed;resizable=0;points=[];outlineConnect=0;sketch=0;fillColor=#dae8fc;strokeColor=#6c8ebf;" vertex="1" parent="9rvDqOFrIInNJt9p8Uub-21">
          <mxGeometry width="10" height="10" as="geometry" />
        </mxCell>
        <mxCell id="9rvDqOFrIInNJt9p8Uub-23" value="" style="rounded=0;orthogonalLoop=1;jettySize=auto;html=1;endArrow=none;endFill=0;sketch=0;sourcePerimeterSpacing=0;targetPerimeterSpacing=0;exitX=0;exitY=0;exitDx=0;exitDy=35;exitPerimeter=0;fillColor=#dae8fc;strokeColor=#6c8ebf;" edge="1" parent="1" source="9rvDqOFrIInNJt9p8Uub-17" target="9rvDqOFrIInNJt9p8Uub-22">
          <mxGeometry relative="1" as="geometry">
            <mxPoint x="315" y="577" as="sourcePoint" />
          </mxGeometry>
        </mxCell>
        <mxCell id="9rvDqOFrIInNJt9p8Uub-24" value="" style="endArrow=none;html=1;rounded=0;exitX=1;exitY=0.5;exitDx=0;exitDy=0;fillColor=#dae8fc;strokeColor=#6c8ebf;" edge="1" parent="1" source="9rvDqOFrIInNJt9p8Uub-17">
          <mxGeometry width="50" height="50" relative="1" as="geometry">
            <mxPoint x="435" y="527" as="sourcePoint" />
            <mxPoint x="505" y="562" as="targetPoint" />
          </mxGeometry>
        </mxCell>
        <mxCell id="9rvDqOFrIInNJt9p8Uub-25" value="Data Access" style="text;html=1;align=center;verticalAlign=middle;whiteSpace=wrap;rounded=0;" vertex="1" parent="1">
          <mxGeometry x="249" y="571" width="90" height="28" as="geometry" />
        </mxCell>
        <mxCell id="9rvDqOFrIInNJt9p8Uub-26" value="" style="endArrow=block;dashed=1;html=1;rounded=0;entryX=0;entryY=0;entryDx=0;entryDy=15;entryPerimeter=0;endFill=0;fillColor=#dae8fc;strokeColor=#6c8ebf;" edge="1" parent="1">
          <mxGeometry width="50" height="50" relative="1" as="geometry">
            <mxPoint x="200" y="418" as="sourcePoint" />
            <mxPoint x="335" y="418" as="targetPoint" />
          </mxGeometry>
        </mxCell>
        <mxCell id="9rvDqOFrIInNJt9p8Uub-27" value="" style="endArrow=block;dashed=1;html=1;rounded=0;entryX=0;entryY=0;entryDx=0;entryDy=15;entryPerimeter=0;endFill=0;fillColor=#dae8fc;strokeColor=#6c8ebf;" edge="1" parent="1">
          <mxGeometry width="50" height="50" relative="1" as="geometry">
            <mxPoint x="200" y="486" as="sourcePoint" />
            <mxPoint x="335" y="486" as="targetPoint" />
          </mxGeometry>
        </mxCell>
      </root>
    </mxGraphModel>
  </diagram>
</mxfile>
